<mxfile host="app.diagrams.net" agent="Mozilla/5.0 (Windows NT 10.0; Win64; x64; rv:144.0) Gecko/20100101 Firefox/144.0" version="28.2.8">
  <diagram name="Page-1" id="FWZw54y70-puKFsqix0n">
    <mxGraphModel dx="1310" dy="742" grid="1" gridSize="10" guides="1" tooltips="1" connect="1" arrows="1" fold="1" page="1" pageScale="1" pageWidth="1169" pageHeight="827" math="0" shadow="0">
      <root>
        <mxCell id="0" />
        <mxCell id="1" parent="0" />
        <mxCell id="t-5tanxMQIxGWKprEQ5J-1" style="rounded=0;orthogonalLoop=1;jettySize=auto;html=1;entryX=0.5;entryY=1;entryDx=0;entryDy=0;" edge="1" parent="1" source="t-5tanxMQIxGWKprEQ5J-3" target="t-5tanxMQIxGWKprEQ5J-23">
          <mxGeometry relative="1" as="geometry" />
        </mxCell>
        <mxCell id="t-5tanxMQIxGWKprEQ5J-2" style="rounded=0;orthogonalLoop=1;jettySize=auto;html=1;exitX=0;exitY=0;exitDx=0;exitDy=40;exitPerimeter=0;entryX=1;entryY=0.25;entryDx=0;entryDy=0;" edge="1" parent="1" source="t-5tanxMQIxGWKprEQ5J-3" target="t-5tanxMQIxGWKprEQ5J-5">
          <mxGeometry relative="1" as="geometry">
            <Array as="points">
              <mxPoint x="910" y="320" />
            </Array>
          </mxGeometry>
        </mxCell>
        <mxCell id="t-5tanxMQIxGWKprEQ5J-56" style="rounded=0;orthogonalLoop=1;jettySize=auto;html=1;entryX=1;entryY=0.5;entryDx=0;entryDy=0;" edge="1" parent="1" source="t-5tanxMQIxGWKprEQ5J-3" target="t-5tanxMQIxGWKprEQ5J-55">
          <mxGeometry relative="1" as="geometry">
            <Array as="points">
              <mxPoint x="990" y="490" />
            </Array>
          </mxGeometry>
        </mxCell>
        <mxCell id="t-5tanxMQIxGWKprEQ5J-3" value="&lt;div&gt;Event&lt;/div&gt;&lt;div&gt;Store&lt;/div&gt;" style="shape=cylinder3;whiteSpace=wrap;html=1;boundedLbl=1;backgroundOutline=1;size=15;fillColor=#ffe6cc;strokeColor=#d79b00;" vertex="1" parent="1">
          <mxGeometry x="955" y="310" width="100" height="130" as="geometry" />
        </mxCell>
        <mxCell id="t-5tanxMQIxGWKprEQ5J-4" style="rounded=0;orthogonalLoop=1;jettySize=auto;html=1;exitX=0;exitY=0.25;exitDx=0;exitDy=0;entryX=1;entryY=0.25;entryDx=0;entryDy=0;" edge="1" parent="1" source="t-5tanxMQIxGWKprEQ5J-5" target="t-5tanxMQIxGWKprEQ5J-8">
          <mxGeometry relative="1" as="geometry" />
        </mxCell>
        <mxCell id="t-5tanxMQIxGWKprEQ5J-58" style="edgeStyle=orthogonalEdgeStyle;rounded=0;orthogonalLoop=1;jettySize=auto;html=1;entryX=0.75;entryY=0;entryDx=0;entryDy=0;" edge="1" parent="1" source="t-5tanxMQIxGWKprEQ5J-5" target="t-5tanxMQIxGWKprEQ5J-31">
          <mxGeometry relative="1" as="geometry" />
        </mxCell>
        <mxCell id="t-5tanxMQIxGWKprEQ5J-5" value="&lt;div&gt;Event&lt;/div&gt;&lt;div&gt;Bus&lt;/div&gt;" style="rounded=1;whiteSpace=wrap;html=1;fillColor=#ffe6cc;strokeColor=#d79b00;" vertex="1" parent="1">
          <mxGeometry x="800" y="265" width="50" height="220" as="geometry" />
        </mxCell>
        <mxCell id="t-5tanxMQIxGWKprEQ5J-6" style="rounded=0;orthogonalLoop=1;jettySize=auto;html=1;entryX=1;entryY=0;entryDx=0;entryDy=15;entryPerimeter=0;" edge="1" parent="1" source="t-5tanxMQIxGWKprEQ5J-8" target="t-5tanxMQIxGWKprEQ5J-27">
          <mxGeometry relative="1" as="geometry" />
        </mxCell>
        <mxCell id="t-5tanxMQIxGWKprEQ5J-7" style="edgeStyle=orthogonalEdgeStyle;rounded=0;orthogonalLoop=1;jettySize=auto;html=1;entryX=0.5;entryY=0;entryDx=0;entryDy=0;" edge="1" parent="1" source="t-5tanxMQIxGWKprEQ5J-8" target="t-5tanxMQIxGWKprEQ5J-11">
          <mxGeometry relative="1" as="geometry" />
        </mxCell>
        <mxCell id="t-5tanxMQIxGWKprEQ5J-8" value="&lt;div&gt;Event&lt;/div&gt;&lt;div&gt;Handler&lt;/div&gt;" style="rounded=1;whiteSpace=wrap;html=1;fillColor=#f5f5f5;strokeColor=#666666;fontColor=#333333;" vertex="1" parent="1">
          <mxGeometry x="515" y="305" width="120" height="60" as="geometry" />
        </mxCell>
        <mxCell id="t-5tanxMQIxGWKprEQ5J-9" value="Read model" style="rounded=1;whiteSpace=wrap;html=1;fillColor=#d5e8d4;strokeColor=#82b366;" vertex="1" parent="1">
          <mxGeometry x="610" y="345" width="55" height="40" as="geometry" />
        </mxCell>
        <mxCell id="t-5tanxMQIxGWKprEQ5J-10" style="rounded=0;orthogonalLoop=1;jettySize=auto;html=1;entryX=0;entryY=0.75;entryDx=0;entryDy=0;" edge="1" parent="1" source="t-5tanxMQIxGWKprEQ5J-11" target="t-5tanxMQIxGWKprEQ5J-5">
          <mxGeometry relative="1" as="geometry" />
        </mxCell>
        <mxCell id="t-5tanxMQIxGWKprEQ5J-11" value="Command Handler" style="rounded=1;whiteSpace=wrap;html=1;fillColor=#dae8fc;strokeColor=#6c8ebf;" vertex="1" parent="1">
          <mxGeometry x="515" y="405" width="120" height="50" as="geometry" />
        </mxCell>
        <mxCell id="t-5tanxMQIxGWKprEQ5J-12" value="Sourced Process State" style="rounded=1;whiteSpace=wrap;html=1;fillColor=#ffe6cc;strokeColor=#d79b00;" vertex="1" parent="1">
          <mxGeometry x="600" y="450" width="70" height="50" as="geometry" />
        </mxCell>
        <mxCell id="t-5tanxMQIxGWKprEQ5J-41" style="rounded=0;orthogonalLoop=1;jettySize=auto;html=1;entryX=0;entryY=0.5;entryDx=0;entryDy=0;exitX=0.625;exitY=0.2;exitDx=0;exitDy=0;exitPerimeter=0;" edge="1" parent="1" source="t-5tanxMQIxGWKprEQ5J-14" target="t-5tanxMQIxGWKprEQ5J-16">
          <mxGeometry relative="1" as="geometry">
            <Array as="points">
              <mxPoint x="350" y="190" />
            </Array>
          </mxGeometry>
        </mxCell>
        <mxCell id="t-5tanxMQIxGWKprEQ5J-42" style="rounded=0;orthogonalLoop=1;jettySize=auto;html=1;entryX=0;entryY=0.5;entryDx=0;entryDy=0;exitX=0.55;exitY=0.95;exitDx=0;exitDy=0;exitPerimeter=0;" edge="1" parent="1" source="t-5tanxMQIxGWKprEQ5J-14" target="t-5tanxMQIxGWKprEQ5J-34">
          <mxGeometry relative="1" as="geometry">
            <Array as="points">
              <mxPoint x="280" y="575" />
            </Array>
          </mxGeometry>
        </mxCell>
        <mxCell id="t-5tanxMQIxGWKprEQ5J-14" value="External systems" style="ellipse;shape=cloud;whiteSpace=wrap;html=1;fillColor=#e1d5e7;strokeColor=#9673a6;" vertex="1" parent="1">
          <mxGeometry x="20" y="295" width="335" height="180" as="geometry" />
        </mxCell>
        <mxCell id="t-5tanxMQIxGWKprEQ5J-15" style="edgeStyle=orthogonalEdgeStyle;rounded=0;orthogonalLoop=1;jettySize=auto;html=1;entryX=0;entryY=0.5;entryDx=0;entryDy=0;curved=1;" edge="1" parent="1" source="t-5tanxMQIxGWKprEQ5J-16" target="t-5tanxMQIxGWKprEQ5J-19">
          <mxGeometry relative="1" as="geometry" />
        </mxCell>
        <mxCell id="t-5tanxMQIxGWKprEQ5J-16" value="Event API / Translator / Inbox" style="rounded=1;whiteSpace=wrap;html=1;fillColor=#f5f5f5;fontColor=#333333;strokeColor=#666666;" vertex="1" parent="1">
          <mxGeometry x="515" y="160" width="140" height="60" as="geometry" />
        </mxCell>
        <mxCell id="t-5tanxMQIxGWKprEQ5J-17" style="edgeStyle=orthogonalEdgeStyle;rounded=0;orthogonalLoop=1;jettySize=auto;html=1;entryX=0.5;entryY=0;entryDx=0;entryDy=0;exitX=0.5;exitY=1;exitDx=0;exitDy=0;curved=1;" edge="1" parent="1" source="t-5tanxMQIxGWKprEQ5J-19" target="t-5tanxMQIxGWKprEQ5J-5">
          <mxGeometry relative="1" as="geometry" />
        </mxCell>
        <mxCell id="t-5tanxMQIxGWKprEQ5J-43" style="edgeStyle=orthogonalEdgeStyle;rounded=0;orthogonalLoop=1;jettySize=auto;html=1;entryX=0.5;entryY=0;entryDx=0;entryDy=0;exitX=1;exitY=0;exitDx=0;exitDy=0;" edge="1" parent="1" source="t-5tanxMQIxGWKprEQ5J-19" target="t-5tanxMQIxGWKprEQ5J-23">
          <mxGeometry relative="1" as="geometry">
            <Array as="points">
              <mxPoint x="1005" y="165" />
            </Array>
          </mxGeometry>
        </mxCell>
        <mxCell id="t-5tanxMQIxGWKprEQ5J-19" value="Command Handler" style="rounded=1;whiteSpace=wrap;html=1;fillColor=#dae8fc;strokeColor=#6c8ebf;" vertex="1" parent="1">
          <mxGeometry x="765" y="165" width="120" height="50" as="geometry" />
        </mxCell>
        <mxCell id="t-5tanxMQIxGWKprEQ5J-20" value="Sourced Domain State" style="rounded=1;whiteSpace=wrap;html=1;fillColor=#ffe6cc;strokeColor=#d79b00;" vertex="1" parent="1">
          <mxGeometry x="855" y="195" width="70" height="70" as="geometry" />
        </mxCell>
        <mxCell id="t-5tanxMQIxGWKprEQ5J-21" style="rounded=0;orthogonalLoop=1;jettySize=auto;html=1;entryX=0.88;entryY=0.25;entryDx=0;entryDy=0;entryPerimeter=0;" edge="1" parent="1" source="t-5tanxMQIxGWKprEQ5J-25" target="t-5tanxMQIxGWKprEQ5J-14">
          <mxGeometry relative="1" as="geometry" />
        </mxCell>
        <mxCell id="t-5tanxMQIxGWKprEQ5J-22" style="edgeStyle=orthogonalEdgeStyle;rounded=0;orthogonalLoop=1;jettySize=auto;html=1;entryX=1;entryY=0.5;entryDx=0;entryDy=0;curved=1;" edge="1" parent="1" source="t-5tanxMQIxGWKprEQ5J-23" target="t-5tanxMQIxGWKprEQ5J-20">
          <mxGeometry relative="1" as="geometry" />
        </mxCell>
        <mxCell id="t-5tanxMQIxGWKprEQ5J-59" value="" style="edgeStyle=orthogonalEdgeStyle;rounded=0;orthogonalLoop=1;jettySize=auto;html=1;" edge="1" parent="1" source="t-5tanxMQIxGWKprEQ5J-23" target="t-5tanxMQIxGWKprEQ5J-20">
          <mxGeometry relative="1" as="geometry" />
        </mxCell>
        <mxCell id="t-5tanxMQIxGWKprEQ5J-23" value="&lt;div&gt;State&lt;/div&gt;&lt;div&gt;Manager&lt;/div&gt;" style="rounded=1;whiteSpace=wrap;html=1;fillColor=#ffe6cc;strokeColor=#d79b00;" vertex="1" parent="1">
          <mxGeometry x="960" y="195" width="90" height="70" as="geometry" />
        </mxCell>
        <mxCell id="t-5tanxMQIxGWKprEQ5J-24" style="rounded=0;orthogonalLoop=1;jettySize=auto;html=1;exitX=1;exitY=0.75;exitDx=0;exitDy=0;entryX=0;entryY=0;entryDx=0;entryDy=97.5;entryPerimeter=0;" edge="1" parent="1" source="t-5tanxMQIxGWKprEQ5J-5" target="t-5tanxMQIxGWKprEQ5J-3">
          <mxGeometry relative="1" as="geometry">
            <Array as="points">
              <mxPoint x="910" y="430" />
            </Array>
          </mxGeometry>
        </mxCell>
        <mxCell id="t-5tanxMQIxGWKprEQ5J-49" style="edgeStyle=orthogonalEdgeStyle;rounded=0;orthogonalLoop=1;jettySize=auto;html=1;" edge="1" parent="1" source="t-5tanxMQIxGWKprEQ5J-25" target="t-5tanxMQIxGWKprEQ5J-27">
          <mxGeometry relative="1" as="geometry" />
        </mxCell>
        <mxCell id="t-5tanxMQIxGWKprEQ5J-25" value="Outbox&lt;br&gt;Manager" style="rounded=1;whiteSpace=wrap;html=1;fillColor=#f8cecc;strokeColor=#b85450;" vertex="1" parent="1">
          <mxGeometry x="400" y="307.5" width="70" height="55" as="geometry" />
        </mxCell>
        <mxCell id="t-5tanxMQIxGWKprEQ5J-26" value="External Read Model / Event" style="rounded=1;whiteSpace=wrap;html=1;fillColor=#008a00;fontColor=#ffffff;strokeColor=#005700;" vertex="1" parent="1">
          <mxGeometry x="470" y="110" width="75" height="65" as="geometry" />
        </mxCell>
        <mxCell id="t-5tanxMQIxGWKprEQ5J-27" value="&lt;div&gt;Outbox&lt;/div&gt;&lt;div&gt;Table&lt;/div&gt;" style="shape=cylinder3;whiteSpace=wrap;html=1;boundedLbl=1;backgroundOutline=1;size=15;fillColor=#f8cecc;strokeColor=#b85450;" vertex="1" parent="1">
          <mxGeometry x="400" y="387.5" width="70" height="77.5" as="geometry" />
        </mxCell>
        <mxCell id="t-5tanxMQIxGWKprEQ5J-28" style="edgeStyle=orthogonalEdgeStyle;rounded=0;orthogonalLoop=1;jettySize=auto;html=1;entryX=0;entryY=0.5;entryDx=0;entryDy=0;curved=1;" edge="1" parent="1" source="t-5tanxMQIxGWKprEQ5J-29" target="t-5tanxMQIxGWKprEQ5J-36">
          <mxGeometry relative="1" as="geometry" />
        </mxCell>
        <mxCell id="t-5tanxMQIxGWKprEQ5J-29" value="Query Handler" style="rounded=1;whiteSpace=wrap;html=1;fillColor=#d5e8d4;strokeColor=#82b366;" vertex="1" parent="1">
          <mxGeometry x="600" y="545" width="120" height="60" as="geometry" />
        </mxCell>
        <mxCell id="t-5tanxMQIxGWKprEQ5J-30" style="edgeStyle=orthogonalEdgeStyle;rounded=0;orthogonalLoop=1;jettySize=auto;html=1;entryX=1;entryY=0.5;entryDx=0;entryDy=0;curved=1;entryPerimeter=0;" edge="1" parent="1" source="t-5tanxMQIxGWKprEQ5J-31" target="t-5tanxMQIxGWKprEQ5J-36">
          <mxGeometry relative="1" as="geometry" />
        </mxCell>
        <mxCell id="t-5tanxMQIxGWKprEQ5J-31" value="Projector / Event Handler" style="rounded=1;whiteSpace=wrap;html=1;fillColor=#ffe6cc;strokeColor=#d79b00;" vertex="1" parent="1">
          <mxGeometry x="735" y="545" width="120" height="60" as="geometry" />
        </mxCell>
        <mxCell id="t-5tanxMQIxGWKprEQ5J-32" value="&lt;div&gt;Projection/&lt;/div&gt;Read Model" style="rounded=1;whiteSpace=wrap;html=1;fillColor=#d5e8d4;strokeColor=#82b366;" vertex="1" parent="1">
          <mxGeometry x="695" y="585" width="70" height="60" as="geometry" />
        </mxCell>
        <mxCell id="t-5tanxMQIxGWKprEQ5J-33" style="edgeStyle=orthogonalEdgeStyle;rounded=0;orthogonalLoop=1;jettySize=auto;html=1;" edge="1" parent="1" source="t-5tanxMQIxGWKprEQ5J-34" target="t-5tanxMQIxGWKprEQ5J-29">
          <mxGeometry relative="1" as="geometry" />
        </mxCell>
        <mxCell id="t-5tanxMQIxGWKprEQ5J-34" value="Query API" style="rounded=1;whiteSpace=wrap;html=1;fillColor=#d5e8d4;strokeColor=#82b366;" vertex="1" parent="1">
          <mxGeometry x="385" y="549.5" width="120" height="51" as="geometry" />
        </mxCell>
        <mxCell id="t-5tanxMQIxGWKprEQ5J-35" value="&lt;div&gt;Query&lt;/div&gt;&lt;div&gt;Database&lt;/div&gt;" style="shape=cylinder3;whiteSpace=wrap;html=1;boundedLbl=1;backgroundOutline=1;size=15;fillColor=#d5e8d4;strokeColor=#82b366;" vertex="1" parent="1">
          <mxGeometry x="750" y="695" width="70" height="77.5" as="geometry" />
        </mxCell>
        <mxCell id="t-5tanxMQIxGWKprEQ5J-36" value="Query Repo" style="rounded=1;whiteSpace=wrap;html=1;fillColor=#d5e8d4;strokeColor=#82b366;" vertex="1" parent="1">
          <mxGeometry x="695" y="655" width="70" height="60" as="geometry" />
        </mxCell>
        <mxCell id="t-5tanxMQIxGWKprEQ5J-37" value="Query" style="ellipse;whiteSpace=wrap;html=1;fillColor=#d5e8d4;strokeColor=#82b366;" vertex="1" parent="1">
          <mxGeometry x="495" y="515" width="60" height="50" as="geometry" />
        </mxCell>
        <mxCell id="t-5tanxMQIxGWKprEQ5J-45" value="&lt;div&gt;Managed process&lt;/div&gt;" style="ellipse;whiteSpace=wrap;html=1;dashed=1;dashPattern=8 8;" vertex="1" parent="1">
          <mxGeometry x="670" y="340" width="120" height="80" as="geometry" />
        </mxCell>
        <mxCell id="t-5tanxMQIxGWKprEQ5J-46" value="&lt;font style=&quot;font-size: 14px;&quot;&gt;Automation for Side-effects&lt;/font&gt;" style="text;html=1;whiteSpace=wrap;strokeColor=none;fillColor=none;align=center;verticalAlign=middle;rounded=0;fontStyle=1" vertex="1" parent="1">
          <mxGeometry x="480" y="265" width="281" height="30" as="geometry" />
        </mxCell>
        <mxCell id="t-5tanxMQIxGWKprEQ5J-47" value="&lt;font style=&quot;font-size: 14px;&quot;&gt;Translation for Command/Information entering&lt;/font&gt;" style="text;html=1;whiteSpace=wrap;strokeColor=none;fillColor=none;align=center;verticalAlign=middle;rounded=0;fontStyle=1" vertex="1" parent="1">
          <mxGeometry x="455" y="70" width="345" height="30" as="geometry" />
        </mxCell>
        <mxCell id="t-5tanxMQIxGWKprEQ5J-48" value="&lt;font style=&quot;font-size: 14px;&quot;&gt;State View&amp;nbsp; for Query/Domain data leaving&lt;/font&gt;" style="text;html=1;whiteSpace=wrap;strokeColor=none;fillColor=none;align=center;verticalAlign=middle;rounded=0;fontStyle=1" vertex="1" parent="1">
          <mxGeometry x="330" y="615" width="310" height="30" as="geometry" />
        </mxCell>
        <mxCell id="t-5tanxMQIxGWKprEQ5J-52" value="ACL" style="text;html=1;whiteSpace=wrap;strokeColor=none;fillColor=none;align=center;verticalAlign=middle;rounded=0;fontStyle=1" vertex="1" parent="1">
          <mxGeometry x="505" y="575" width="40" height="30" as="geometry" />
        </mxCell>
        <mxCell id="t-5tanxMQIxGWKprEQ5J-53" value="ACL" style="text;html=1;whiteSpace=wrap;strokeColor=none;fillColor=none;align=center;verticalAlign=middle;rounded=0;fontStyle=1" vertex="1" parent="1">
          <mxGeometry x="570" y="127.5" width="40" height="30" as="geometry" />
        </mxCell>
        <mxCell id="t-5tanxMQIxGWKprEQ5J-54" value="Command" style="ellipse;whiteSpace=wrap;html=1;fillColor=#dae8fc;strokeColor=#6c8ebf;" vertex="1" parent="1">
          <mxGeometry x="650" y="127.5" width="60" height="50" as="geometry" />
        </mxCell>
        <mxCell id="t-5tanxMQIxGWKprEQ5J-57" style="rounded=0;orthogonalLoop=1;jettySize=auto;html=1;entryX=1;entryY=0.5;entryDx=0;entryDy=0;" edge="1" parent="1" source="t-5tanxMQIxGWKprEQ5J-55" target="t-5tanxMQIxGWKprEQ5J-12">
          <mxGeometry relative="1" as="geometry">
            <Array as="points">
              <mxPoint x="780" y="510" />
            </Array>
          </mxGeometry>
        </mxCell>
        <mxCell id="t-5tanxMQIxGWKprEQ5J-55" value="&lt;div&gt;State&lt;/div&gt;&lt;div&gt;Manager&lt;/div&gt;" style="rounded=1;whiteSpace=wrap;html=1;fillColor=#ffe6cc;strokeColor=#d79b00;" vertex="1" parent="1">
          <mxGeometry x="870" y="475" width="90" height="70" as="geometry" />
        </mxCell>
        <mxCell id="t-5tanxMQIxGWKprEQ5J-60" value="" style="sketch=0;outlineConnect=0;fontColor=#232F3E;gradientColor=none;fillColor=#232F3D;strokeColor=none;dashed=0;verticalLabelPosition=bottom;verticalAlign=top;align=center;html=1;fontSize=12;fontStyle=0;aspect=fixed;pointerEvents=1;shape=mxgraph.aws4.gear;" vertex="1" parent="1">
          <mxGeometry x="632" y="200" width="38" height="38" as="geometry" />
        </mxCell>
        <mxCell id="t-5tanxMQIxGWKprEQ5J-61" value="" style="sketch=0;outlineConnect=0;fontColor=#232F3E;gradientColor=none;fillColor=#232F3D;strokeColor=none;dashed=0;verticalLabelPosition=bottom;verticalAlign=top;align=center;html=1;fontSize=12;fontStyle=0;aspect=fixed;pointerEvents=1;shape=mxgraph.aws4.gear;" vertex="1" parent="1">
          <mxGeometry x="495" y="290" width="38" height="38" as="geometry" />
        </mxCell>
        <mxCell id="t-5tanxMQIxGWKprEQ5J-65" value="State view pattern" style="text;html=1;whiteSpace=wrap;strokeColor=none;fillColor=none;align=center;verticalAlign=middle;rounded=0;" vertex="1" parent="1">
          <mxGeometry x="675" y="519.5" width="105" height="30" as="geometry" />
        </mxCell>
      </root>
    </mxGraphModel>
  </diagram>
</mxfile>
